<?xml version="1.0" standalone="no"?>
<!DOCTYPE svg PUBLIC "-//W3C//DTD SVG 20010904//EN"
 "http://www.w3.org/TR/2001/REC-SVG-20010904/DTD/svg10.dtd">
<svg version="1.0" xmlns="http://www.w3.org/2000/svg"
 width="1024.000000pt" height="1024.000000pt" viewBox="0 0 1024.000000 1024.000000"
 preserveAspectRatio="xMidYMid meet">

<g transform="translate(0.000000,1024.000000) scale(0.100000,-0.100000)"
fill="#000000" stroke="none">
<path d="M4515 7924 c-92 -18 -215 -80 -292 -148 -35 -30 -77 -57 -95 -61
-140 -31 -328 -200 -399 -359 -15 -36 -25 -45 -61 -55 -210 -62 -388 -259
-449 -498 -14 -55 -19 -110 -19 -198 0 -148 22 -245 80 -352 l40 -74 -29 -42
c-108 -158 -154 -348 -132 -548 22 -203 97 -354 251 -510 82 -83 108 -102 190
-143 129 -62 191 -77 336 -80 l121 -2 59 -47 c66 -53 145 -94 249 -129 94 -31
299 -33 385 -4 115 39 192 87 281 176 l85 86 34 -44 c81 -105 228 -197 365
-227 105 -24 293 -17 379 14 83 29 175 83 233 135 l49 45 95 -6 c105 -6 181 8
302 55 292 114 499 431 500 767 0 181 -33 303 -120 439 l-44 68 40 78 c56 106
81 217 81 355 0 140 -18 213 -81 343 -42 86 -64 117 -127 181 -81 81 -155 130
-244 160 -51 17 -54 20 -98 101 -77 144 -214 262 -364 314 -38 14 -87 42 -127
74 -138 113 -276 157 -464 149 -156 -6 -271 -46 -377 -130 l-37 -30 -40 36
c-54 49 -149 96 -230 113 -82 17 -234 17 -326 -2z m304 -231 c56 -18 133 -79
155 -122 14 -27 33 -201 22 -201 -3 0 -24 13 -47 29 -124 90 -353 104 -508 31
-65 -31 -154 -107 -177 -152 -26 -51 -16 -106 29 -155 15 -17 32 -23 65 -23
41 0 49 5 104 60 48 48 72 63 116 76 147 43 311 -36 384 -184 l33 -67 0 -345
0 -345 -91 -1 c-102 -2 -134 -15 -154 -65 -7 -16 -10 -45 -7 -65 12 -73 67
-104 182 -104 l76 0 -3 -412 -3 -413 -42 -87 c-51 -107 -122 -186 -205 -227
-69 -35 -149 -53 -210 -49 l-43 3 30 18 c74 46 89 112 37 159 -44 38 -85 37
-166 -6 -152 -81 -351 -42 -503 97 -33 32 -67 57 -75 57 -25 0 -51 -37 -46
-65 6 -30 7 -30 -45 -4 -128 66 -211 144 -270 257 -90 171 -92 389 -4 569 25
53 83 133 95 133 4 0 22 -22 40 -49 55 -81 138 -159 182 -171 75 -20 150 35
150 112 0 36 -7 47 -68 108 -78 77 -110 137 -123 226 -22 154 41 288 158 341
l53 23 0 59 c0 72 15 93 87 116 56 18 102 61 105 98 4 66 -12 96 -66 124 -34
17 -85 11 -133 -17 l-33 -19 0 42 c0 61 25 151 62 220 45 83 178 201 178 157
0 -17 52 -32 87 -25 27 5 39 17 72 73 69 117 153 176 291 202 60 12 165 4 229
-17z m832 13 c131 -28 229 -98 280 -198 20 -40 38 -62 57 -69 32 -12 85 -4
102 16 11 13 16 13 42 -3 51 -29 128 -119 158 -184 29 -61 50 -145 50 -196 0
-27 1 -27 -80 3 -55 20 -99 13 -134 -21 -35 -36 -44 -88 -21 -131 14 -25 37
-42 91 -68 40 -19 75 -38 77 -42 3 -5 0 -38 -5 -76 -12 -83 -4 -97 57 -97 108
0 198 -166 174 -320 -13 -80 -44 -136 -123 -219 -69 -72 -76 -84 -76 -120 0
-77 77 -131 157 -109 43 12 131 96 185 176 l36 54 42 -53 c87 -110 123 -216
123 -359 -1 -188 -49 -305 -178 -436 -58 -59 -100 -91 -152 -118 -40 -20 -74
-36 -77 -36 -2 0 1 13 7 29 9 25 8 33 -8 50 -10 12 -25 21 -33 21 -8 0 -41
-25 -73 -55 -38 -36 -88 -70 -142 -96 -141 -68 -265 -65 -372 8 -79 54 -165
22 -165 -62 0 -34 38 -84 85 -112 16 -10 4 -11 -67 -9 -76 3 -98 9 -167 41
-133 62 -231 185 -260 323 -7 33 -11 196 -11 436 l0 384 95 4 c87 4 97 6 124
32 36 35 45 65 31 115 -17 63 -39 75 -148 81 l-97 5 0 340 c0 395 2 407 86
500 72 78 141 109 245 109 75 1 87 -2 153 -36 40 -21 83 -38 97 -38 35 0 78
24 91 52 21 43 21 55 4 94 -34 74 -118 125 -252 152 -67 13 -95 14 -158 5 -97
-15 -183 -47 -227 -85 l-34 -30 0 99 c0 94 2 102 28 139 48 66 175 121 282
123 19 0 65 -6 101 -13z m-1971 -705 c0 -32 4 -82 10 -110 l10 -52 -49 -58
c-108 -130 -154 -239 -155 -368 -1 -40 -2 -73 -4 -73 -2 0 -14 24 -28 54 -87
190 -35 437 126 599 38 37 73 67 79 67 7 0 11 -23 11 -59z m2940 18 c168 -133
235 -426 143 -626 -22 -48 -33 -40 -33 25 0 121 -46 232 -147 357 -45 56 -48
63 -41 100 4 22 7 73 7 113 1 39 5 72 10 72 5 0 32 -18 61 -41z"/>
<path d="M4214 6856 c-27 -27 -34 -42 -34 -74 0 -45 28 -85 146 -209 64 -68
72 -73 111 -73 76 0 138 82 114 151 -11 33 -152 201 -188 224 -12 8 -43 15
-69 15 -39 0 -51 -5 -80 -34z"/>
<path d="M4223 6305 c-54 -23 -84 -95 -60 -147 14 -31 142 -192 203 -255 33
-34 48 -43 75 -43 76 0 140 75 121 144 -5 18 -54 89 -108 159 -75 95 -108 129
-137 141 -45 19 -53 19 -94 1z"/>
<path d="M4238 5624 c-31 -16 -58 -61 -58 -94 0 -36 28 -85 59 -103 26 -15 64
-17 319 -17 l290 0 31 26 c56 47 50 147 -13 185 -29 17 -52 19 -316 19 -233
-1 -290 -4 -312 -16z"/>
<path d="M3715 5507 c-44 -44 -55 -98 -29 -146 27 -48 67 -76 113 -76 53 0 89
22 112 67 51 99 -5 188 -117 188 -39 0 -51 -5 -79 -33z"/>
<path d="M5872 6875 c-39 -28 -180 -205 -187 -235 -9 -42 11 -96 45 -120 30
-21 89 -27 120 -10 16 9 121 129 178 204 34 46 30 100 -12 142 -28 28 -41 34
-78 34 -24 0 -53 -7 -66 -15z"/>
<path d="M5894 6301 c-17 -10 -47 -43 -69 -72 -21 -30 -61 -83 -90 -119 -29
-36 -57 -81 -63 -101 -31 -114 104 -194 190 -112 41 38 195 235 209 266 25 54
-10 122 -74 146 -41 16 -68 14 -103 -8z"/>
<path d="M5354 5606 c-27 -27 -34 -42 -34 -75 0 -55 17 -87 56 -106 29 -14 75
-15 325 -13 l291 3 29 33 c41 46 41 108 0 154 l-29 33 -302 3 -301 3 -35 -35z"/>
<path d="M6359 5525 c-28 -15 -59 -70 -59 -105 0 -11 6 -33 14 -48 49 -94 171
-110 227 -30 17 24 20 40 16 81 -4 42 -10 56 -41 84 -30 28 -43 33 -83 33 -27
-1 -60 -7 -74 -15z"/>
<path d="M5936 4409 c-16 -4 -39 -18 -52 -30 l-24 -22 0 -436 c0 -326 3 -442
13 -460 41 -81 165 -85 210 -7 8 14 14 102 17 267 l5 247 67 -77 c308 -349
396 -447 419 -463 56 -42 148 -32 189 20 19 24 20 42 20 454 0 447 -1 456 -44
490 -33 27 -118 24 -152 -5 -37 -32 -43 -79 -43 -345 -1 -215 -2 -222 -19
-205 -10 10 -125 138 -256 285 -130 147 -242 270 -248 274 -22 14 -74 20 -102
13z"/>
<path d="M6994 4409 c-50 -14 -79 -54 -78 -104 1 -37 10 -57 62 -127 34 -46
106 -149 161 -229 l100 -145 3 -176 c3 -157 5 -178 22 -197 41 -45 128 -44
175 4 26 25 26 28 31 203 3 97 9 184 14 192 5 8 55 78 111 155 186 256 207
289 208 328 1 44 -29 81 -80 98 -28 9 -43 8 -78 -5 -39 -15 -55 -33 -160 -184
-64 -92 -120 -168 -123 -169 -4 -1 -50 59 -102 134 -118 170 -146 202 -187
219 -36 16 -36 16 -79 3z"/>
<path d="M2423 4396 c-17 -8 -36 -23 -42 -35 -7 -13 -11 -164 -11 -460 l0
-440 24 -28 24 -28 249 0 c240 0 250 1 301 24 173 78 226 347 89 457 l-35 28
37 43 c118 133 59 345 -118 427 -42 19 -67 21 -266 23 -173 3 -227 0 -252 -11z
m403 -221 c44 -18 66 -65 52 -107 -18 -50 -41 -58 -165 -58 l-113 0 0 90 0 90
95 0 c61 0 108 -5 131 -15z m23 -395 c32 -16 53 -72 41 -104 -14 -39 -40 -46
-169 -46 l-121 0 0 85 0 85 114 -4 c62 -2 123 -9 135 -16z"/>
<path d="M3332 4395 c-17 -8 -37 -26 -42 -40 -13 -34 -13 -855 -1 -888 18 -46
50 -67 104 -67 97 0 110 23 117 195 l5 130 40 2 40 2 85 -130 c47 -72 102
-146 123 -165 32 -29 44 -34 88 -34 45 0 55 4 85 34 54 54 48 85 -34 192 -37
49 -75 101 -84 115 l-17 26 46 24 c146 75 206 276 129 432 -33 68 -108 139
-174 163 -66 24 -459 32 -510 9z m399 -225 c86 -24 114 -119 53 -180 -37 -37
-82 -49 -186 -50 l-78 0 0 120 0 120 88 0 c48 0 103 -5 123 -10z"/>
<path d="M4485 4400 c-52 -21 -56 -31 -333 -737 -29 -72 -52 -143 -52 -158 0
-40 25 -79 63 -100 31 -16 41 -17 76 -7 49 15 75 49 105 139 l23 68 170 3 170
2 28 -75 c37 -101 70 -135 134 -135 56 0 111 31 125 72 11 30 13 24 -118 363
-53 138 -117 304 -142 370 -61 159 -67 170 -108 189 -36 17 -107 20 -141 6z
m103 -450 c17 -47 33 -93 37 -102 6 -16 -1 -18 -80 -18 -48 0 -85 4 -83 8 2 5
21 54 42 110 22 56 43 99 46 95 4 -5 21 -46 38 -93z"/>
<path d="M5121 4389 c-12 -11 -26 -32 -32 -46 -5 -14 -9 -205 -9 -439 0 -446
1 -452 52 -488 50 -35 145 -11 173 44 22 43 22 856 0 900 -20 39 -43 50 -107
50 -41 0 -60 -5 -77 -21z"/>
<path d="M5525 4399 c-49 -24 -49 -28 -53 -473 -3 -447 -1 -470 45 -506 32
-25 94 -26 134 -3 53 31 54 42 54 499 0 452 -1 460 -52 483 -29 13 -100 13
-128 0z"/>
<path d="M7338 3200 c-210 -36 -342 -274 -250 -451 42 -81 89 -108 268 -152
181 -45 218 -62 222 -100 3 -21 -5 -36 -31 -62 -32 -32 -40 -35 -95 -35 -48 0
-71 6 -118 32 -137 73 -132 72 -175 59 -41 -12 -64 -38 -78 -87 -13 -49 5 -90
59 -133 179 -142 432 -145 573 -7 131 128 142 312 27 427 -51 51 -90 67 -310
125 -58 15 -111 32 -117 37 -21 16 -15 66 11 92 54 54 151 53 224 -1 17 -14
49 -32 69 -40 48 -21 101 -6 137 37 113 134 -157 302 -416 259z"/>
<path d="M4512 3183 c-41 -20 -62 -50 -100 -143 -225 -554 -292 -728 -292
-760 0 -99 125 -139 192 -63 10 11 33 55 52 99 l35 79 177 0 177 0 33 -80 c43
-102 77 -135 140 -135 39 0 51 5 80 34 26 26 34 43 34 69 0 31 -259 718 -306
810 -49 96 -137 132 -222 90z m111 -429 c21 -59 41 -112 43 -119 4 -9 -14 -13
-73 -14 -113 -1 -114 0 -70 106 20 48 39 98 42 111 4 12 9 22 13 22 4 0 24
-48 45 -106z"/>
<path d="M5073 3189 c-17 -5 -41 -22 -53 -37 -35 -44 -23 -94 70 -302 118
-263 224 -507 245 -563 27 -71 64 -107 112 -107 67 0 99 36 123 140 7 30 14
51 16 45 29 -111 49 -157 75 -171 45 -23 91 -18 121 14 15 15 64 115 111 222
47 107 128 295 181 416 53 122 96 231 96 242 0 65 -44 104 -120 105 -87 1
-115 -43 -256 -411 -65 -171 -61 -170 -93 -16 -24 108 -43 144 -84 155 -39 10
-94 -8 -114 -37 -9 -14 -26 -72 -37 -129 -12 -57 -24 -107 -28 -110 -3 -3 -47
99 -98 227 -109 274 -114 283 -143 302 -30 20 -86 27 -124 15z"/>
<path d="M6360 3187 c-19 -7 -44 -27 -57 -46 l-23 -34 0 -421 c0 -399 1 -423
20 -453 12 -21 31 -35 55 -42 22 -6 139 -8 297 -5 215 4 265 8 285 21 56 37
71 131 29 180 l-24 28 -206 3 -205 3 -3 354 c-3 337 -4 354 -23 375 -20 23
-74 50 -97 49 -7 0 -29 -5 -48 -12z"/>
<path d="M2402 3163 l-30 -28 -5 -436 c-5 -418 -5 -438 14 -468 10 -17 31 -36
47 -42 17 -7 111 -9 252 -7 211 3 228 5 278 27 65 29 134 104 156 168 36 104
7 229 -66 287 l-33 27 41 43 c118 124 60 336 -116 428 -43 22 -56 23 -277 26
l-232 3 -29 -28z m423 -205 c30 -13 55 -55 55 -91 0 -60 -66 -87 -217 -87
l-63 0 0 95 0 95 100 0 c55 0 111 -5 125 -12z m41 -422 c13 -15 24 -38 24 -52
0 -66 -42 -84 -192 -84 l-98 0 0 78 c0 43 3 82 8 86 4 5 58 6 121 4 109 -4
115 -6 137 -32z"/>
<path d="M3309 3161 l-29 -29 0 -432 c0 -369 2 -437 15 -465 18 -37 51 -55
100 -55 78 0 115 44 115 137 0 32 3 88 7 126 l6 67 36 0 c20 0 41 -4 46 -8 6
-4 52 -64 103 -133 136 -187 175 -214 252 -174 42 22 60 53 60 105 0 41 -6 52
-63 118 -35 40 -71 86 -80 102 l-17 29 42 29 c63 44 94 80 124 146 23 50 27
73 26 138 -1 104 -34 180 -108 247 -82 75 -109 81 -377 81 l-229 0 -29 -29z
m467 -216 c40 -26 58 -72 45 -116 -23 -76 -101 -107 -246 -97 l-50 3 -6 110
c-4 61 -4 114 -1 119 9 15 231 -1 258 -19z"/>
</g>
</svg>
